<?xml version="1.0" encoding="utf-8"?>
<!-- Generator: Adobe Illustrator 21.0.2, SVG Export Plug-In . SVG Version: 6.00 Build 0)  -->
<svg version="1.1" id="logo" xmlns="http://www.w3.org/2000/svg" xmlns:xlink="http://www.w3.org/1999/xlink" x="0px" y="0px"
	 viewBox="0 0 400 115" style="enable-background:new 0 0 400 115;" xml:space="preserve">
<path d="M340.5,53.6l-19.3,0l0-30.7l19.3,0c11.2,0,17.7,7.3,17.7,15.3C358.2,46.3,351.5,53.6,340.5,53.6z M355.9,63.6
	c14.6-2.6,24.2-12.4,24.2-27.1c0-18.7-15.3-30.5-38.2-30.5l-42.3,0l0,102.7l21.6,0l0-37.8l13.4,0c13.6,0,24.2,32.3,33.4,37.8l27.1,0
	C380.2,98.4,372.2,67,355.9,63.6z M198.9,108.7l21.6,0l0-41.7l42.7,0l0,41.7l21.6,0l0-102.7l-21.6,0l0,41.1l-42.7,0l0-41.1l-21.6,0
	L198.9,108.7z M132.5,91.1c-18.5,0-31.3-15.3-31.3-34s12.8-33.6,31.3-33.6s31.3,14.8,31.3,33.6C163.9,75.8,151,91.1,132.5,91.1z
	 M132.5,3.4c-30.3,0-54.1,23.4-54.1,53.7c0,30.3,23.8,54.1,54.1,54.1c30.3,0,54.1-23.8,54.1-54.1S162.8,3.4,132.5,3.4z M5,108.7
	l21.6,0l0-40.3l39.5,0l0-19.3l-39.5,0l0-23.4l50,0l0-19.7L5,6L5,108.7z"/>
</svg>
